<mxfile host="drawio-plugin" modified="2021-10-18T22:19:44.969Z" agent="5.0 (X11; Linux x86_64) AppleWebKit/537.36 (KHTML, like Gecko) Chrome/87.0.4280.141 Safari/537.36" version="14.7.4" etag="ttvsRFCjkQqk1BCyPOKC" type="embed" pages="2"><diagram id="-k88tWkIBxD3KjWn2k7y" name="agile"><mxGraphModel dx="1691" dy="1029" grid="1" gridSize="10" guides="1" tooltips="1" connect="1" arrows="1" fold="1" page="1" pageScale="1" pageWidth="850" pageHeight="1100" math="0" shadow="0"><root><mxCell id="0"/><mxCell id="1" parent="0"/><mxCell id="2" value="I want this feature" style="rounded=0;whiteSpace=wrap;html=1;fillColor=#d5e8d4;strokeColor=#82b366;" parent="1" vertex="1"><mxGeometry x="40" y="240" width="120" height="40" as="geometry"/></mxCell><mxCell id="3" value="customer" style="shape=umlActor;verticalLabelPosition=bottom;verticalAlign=top;html=1;outlineConnect=0;" parent="1" vertex="1"><mxGeometry x="80" y="120" width="40" height="80" as="geometry"/></mxCell><mxCell id="4" value="EPIC" style="rounded=0;whiteSpace=wrap;html=1;fillColor=#e1d5e7;strokeColor=#9673a6;" parent="1" vertex="1"><mxGeometry x="200" y="240" width="120" height="40" as="geometry"/></mxCell><mxCell id="5" value="user story" style="rounded=0;whiteSpace=wrap;html=1;fillColor=#d5e8d4;strokeColor=#82b366;" parent="1" vertex="1"><mxGeometry x="240" y="280" width="120" height="40" as="geometry"/></mxCell><mxCell id="6" value="BE task" style="rounded=0;whiteSpace=wrap;html=1;fillColor=#dae8fc;strokeColor=#6c8ebf;" parent="1" vertex="1"><mxGeometry x="280" y="320" width="120" height="40" as="geometry"/></mxCell><mxCell id="7" value="FE task" style="rounded=0;whiteSpace=wrap;html=1;fillColor=#dae8fc;strokeColor=#6c8ebf;" parent="1" vertex="1"><mxGeometry x="280" y="360" width="120" height="40" as="geometry"/></mxCell><mxCell id="8" value="Grooming" style="rounded=0;whiteSpace=wrap;html=1;fillColor=#ffff88;strokeColor=#36393d;fontStyle=1" parent="1" vertex="1"><mxGeometry x="200" y="120" width="120" height="40" as="geometry"/></mxCell><mxCell id="10" value="Planning" style="rounded=0;whiteSpace=wrap;html=1;fillColor=#ffff88;strokeColor=#36393d;fontStyle=1" parent="1" vertex="1"><mxGeometry x="440" y="120" width="120" height="40" as="geometry"/></mxCell><mxCell id="11" value="Priority" style="rounded=0;whiteSpace=wrap;html=1;fillColor=#ffff88;strokeColor=#36393d;fontStyle=1" parent="1" vertex="1"><mxGeometry x="440" y="200" width="120" height="40" as="geometry"/></mxCell><mxCell id="16" value="Plan" style="rounded=0;whiteSpace=wrap;html=1;fillColor=#ffcd28;strokeColor=#d79b00;gradientColor=#ffa500;shadow=1;fontStyle=1" parent="1" vertex="1"><mxGeometry x="40" y="40" width="120" height="40" as="geometry"/></mxCell><mxCell id="17" value="Sprint" style="rounded=0;whiteSpace=wrap;html=1;fillColor=#ffff88;strokeColor=#36393d;fontStyle=1" parent="1" vertex="1"><mxGeometry x="800" y="120" width="120" height="40" as="geometry"/></mxCell><mxCell id="18" value="US 1" style="rounded=0;whiteSpace=wrap;html=1;fillColor=#d5e8d4;strokeColor=#82b366;" parent="1" vertex="1"><mxGeometry x="800" y="200" width="120" height="40" as="geometry"/></mxCell><mxCell id="19" value="US 2" style="rounded=0;whiteSpace=wrap;html=1;fillColor=#d5e8d4;strokeColor=#82b366;" parent="1" vertex="1"><mxGeometry x="800" y="240" width="120" height="40" as="geometry"/></mxCell><mxCell id="20" value="new task" style="rounded=0;whiteSpace=wrap;html=1;fillColor=#dae8fc;strokeColor=#6c8ebf;" parent="1" vertex="1"><mxGeometry x="800" y="320" width="120" height="40" as="geometry"/></mxCell><mxCell id="21" value="now &amp;gt; backlog &amp;gt; nice to have" style="rounded=0;whiteSpace=wrap;html=1;fillColor=#f5f5f5;strokeColor=#666666;fontColor=#333333;" parent="1" vertex="1"><mxGeometry x="800" y="380" width="180" height="40" as="geometry"/></mxCell><mxCell id="22" value="new bug" style="rounded=0;whiteSpace=wrap;html=1;fillColor=#f8cecc;strokeColor=#b85450;" parent="1" vertex="1"><mxGeometry x="800" y="160" width="120" height="40" as="geometry"/></mxCell><mxCell id="24" value="designer: 2" style="rounded=0;whiteSpace=wrap;html=1;fillColor=#e1d5e7;strokeColor=#9673a6;" parent="1" vertex="1"><mxGeometry x="640" y="520" width="120" height="40" as="geometry"/></mxCell><mxCell id="26" value="junior: 5" style="rounded=0;whiteSpace=wrap;html=1;fillColor=#d5e8d4;strokeColor=#82b366;" parent="1" vertex="1"><mxGeometry x="640" y="600" width="120" height="40" as="geometry"/></mxCell><mxCell id="27" value="senior: 1&amp;nbsp;" style="rounded=0;whiteSpace=wrap;html=1;fillColor=#d5e8d4;strokeColor=#82b366;" parent="1" vertex="1"><mxGeometry x="640" y="680" width="120" height="40" as="geometry"/></mxCell><mxCell id="29" value="1&lt;br&gt;" style="rounded=0;whiteSpace=wrap;html=1;" parent="1" vertex="1"><mxGeometry x="600" y="460" width="40" height="40" as="geometry"/></mxCell><mxCell id="30" value="2" style="rounded=0;whiteSpace=wrap;html=1;" parent="1" vertex="1"><mxGeometry x="640" y="420" width="40" height="80" as="geometry"/></mxCell><mxCell id="31" value="1 2 3 5 8" style="rounded=0;whiteSpace=wrap;html=1;" parent="1" vertex="1"><mxGeometry x="440" y="640" width="160" height="40" as="geometry"/></mxCell><mxCell id="32" value="estimation" style="rounded=0;whiteSpace=wrap;html=1;fillColor=#ffff88;strokeColor=#36393d;fontStyle=1" parent="1" vertex="1"><mxGeometry x="440" y="320" width="120" height="40" as="geometry"/></mxCell><mxCell id="33" value="&lt;span&gt;&amp;nbsp;code complexity&lt;/span&gt;&lt;br&gt;&lt;span&gt;&amp;nbsp;design complexity&lt;/span&gt;&lt;br&gt;&lt;span&gt;&amp;nbsp;knowledge&lt;br&gt;&lt;/span&gt;&amp;nbsp;risk&lt;span&gt;&lt;br&gt;&lt;/span&gt;" style="rounded=0;whiteSpace=wrap;html=1;align=left;" parent="1" vertex="1"><mxGeometry x="440" y="560" width="160" height="80" as="geometry"/></mxCell><mxCell id="34" value="Jira" style="rounded=0;whiteSpace=wrap;html=1;fillColor=#dae8fc;strokeColor=#6c8ebf;fontStyle=1" parent="1" vertex="1"><mxGeometry x="200" y="40" width="120" height="40" as="geometry"/></mxCell><mxCell id="35" value="user story" style="rounded=0;whiteSpace=wrap;html=1;fontStyle=1;fillColor=#ffff88;strokeColor=#36393d;" parent="1" vertex="1"><mxGeometry x="440" y="360" width="120" height="40" as="geometry"/></mxCell><mxCell id="36" value="as a user&lt;br&gt;I want to...&lt;br&gt;so that I can..." style="rounded=0;whiteSpace=wrap;html=1;fillColor=#f5f5f5;strokeColor=#666666;fontColor=#333333;" parent="1" vertex="1"><mxGeometry x="440" y="400" width="120" height="60" as="geometry"/></mxCell><mxCell id="37" value="acceptance criteria" style="rounded=0;whiteSpace=wrap;html=1;fillColor=#ffff88;strokeColor=#36393d;fontStyle=1" parent="1" vertex="1"><mxGeometry x="440" y="460" width="120" height="40" as="geometry"/></mxCell><mxCell id="54" value="" style="edgeStyle=orthogonalEdgeStyle;rounded=0;orthogonalLoop=1;jettySize=auto;html=1;" parent="1" source="38" target="40" edge="1"><mxGeometry relative="1" as="geometry"/></mxCell><mxCell id="38" value="IN PROGRESS" style="rounded=0;whiteSpace=wrap;html=1;" parent="1" vertex="1"><mxGeometry x="200" y="990" width="120" height="40" as="geometry"/></mxCell><mxCell id="57" style="edgeStyle=orthogonalEdgeStyle;rounded=0;orthogonalLoop=1;jettySize=auto;html=1;" parent="1" source="39" target="38" edge="1"><mxGeometry relative="1" as="geometry"><Array as="points"><mxPoint x="740" y="960"/><mxPoint x="260" y="960"/></Array></mxGeometry></mxCell><mxCell id="58" value="" style="edgeStyle=orthogonalEdgeStyle;rounded=0;orthogonalLoop=1;jettySize=auto;html=1;" parent="1" source="39" target="43" edge="1"><mxGeometry relative="1" as="geometry"/></mxCell><mxCell id="39" value="TESTING" style="rounded=0;whiteSpace=wrap;html=1;" parent="1" vertex="1"><mxGeometry x="680" y="990" width="120" height="40" as="geometry"/></mxCell><mxCell id="51" style="edgeStyle=orthogonalEdgeStyle;rounded=0;orthogonalLoop=1;jettySize=auto;html=1;" parent="1" source="40" target="38" edge="1"><mxGeometry relative="1" as="geometry"><mxPoint x="390" y="1180" as="targetPoint"/><Array as="points"><mxPoint x="420" y="1050"/><mxPoint x="260" y="1050"/></Array></mxGeometry></mxCell><mxCell id="55" value="" style="edgeStyle=orthogonalEdgeStyle;rounded=0;orthogonalLoop=1;jettySize=auto;html=1;" parent="1" source="40" target="42" edge="1"><mxGeometry relative="1" as="geometry"/></mxCell><mxCell id="40" value="CODE REVIEW" style="rounded=0;whiteSpace=wrap;html=1;" parent="1" vertex="1"><mxGeometry x="360" y="990" width="120" height="40" as="geometry"/></mxCell><mxCell id="53" style="edgeStyle=orthogonalEdgeStyle;rounded=0;orthogonalLoop=1;jettySize=auto;html=1;" parent="1" source="41" target="38" edge="1"><mxGeometry relative="1" as="geometry"/></mxCell><mxCell id="41" value="TODO" style="rounded=0;whiteSpace=wrap;html=1;" parent="1" vertex="1"><mxGeometry x="40" y="990" width="120" height="40" as="geometry"/></mxCell><mxCell id="56" value="" style="edgeStyle=orthogonalEdgeStyle;rounded=0;orthogonalLoop=1;jettySize=auto;html=1;" parent="1" source="42" target="39" edge="1"><mxGeometry relative="1" as="geometry"/></mxCell><mxCell id="42" value="DEV DONE" style="rounded=0;whiteSpace=wrap;html=1;" parent="1" vertex="1"><mxGeometry x="520" y="990" width="120" height="40" as="geometry"/></mxCell><mxCell id="59" value="" style="edgeStyle=orthogonalEdgeStyle;rounded=0;orthogonalLoop=1;jettySize=auto;html=1;" parent="1" source="43" target="44" edge="1"><mxGeometry relative="1" as="geometry"/></mxCell><mxCell id="43" value="DONE" style="rounded=0;whiteSpace=wrap;html=1;" parent="1" vertex="1"><mxGeometry x="840" y="990" width="120" height="40" as="geometry"/></mxCell><mxCell id="60" value="" style="edgeStyle=orthogonalEdgeStyle;rounded=0;orthogonalLoop=1;jettySize=auto;html=1;" parent="1" source="44" target="45" edge="1"><mxGeometry relative="1" as="geometry"/></mxCell><mxCell id="44" value="SELECTED FOR RELEASE" style="rounded=0;whiteSpace=wrap;html=1;" parent="1" vertex="1"><mxGeometry x="1000" y="990" width="120" height="40" as="geometry"/></mxCell><mxCell id="61" value="" style="edgeStyle=orthogonalEdgeStyle;rounded=0;orthogonalLoop=1;jettySize=auto;html=1;" parent="1" source="45" target="46" edge="1"><mxGeometry relative="1" as="geometry"/></mxCell><mxCell id="45" value="READY FOR RELEASE" style="rounded=0;whiteSpace=wrap;html=1;" parent="1" vertex="1"><mxGeometry x="1160" y="990" width="120" height="40" as="geometry"/></mxCell><mxCell id="46" value="RELEASED" style="rounded=0;whiteSpace=wrap;html=1;" parent="1" vertex="1"><mxGeometry x="1320" y="990" width="120" height="40" as="geometry"/></mxCell><mxCell id="47" value="Workflow" style="rounded=0;whiteSpace=wrap;html=1;fillColor=#ffcd28;strokeColor=#d79b00;gradientColor=#ffa500;shadow=1;fontStyle=1" parent="1" vertex="1"><mxGeometry x="40" y="920" width="120" height="40" as="geometry"/></mxCell><mxCell id="48" value="regular: 3" style="rounded=0;whiteSpace=wrap;html=1;fillColor=#d5e8d4;strokeColor=#82b366;" parent="1" vertex="1"><mxGeometry x="640" y="640" width="120" height="40" as="geometry"/></mxCell><mxCell id="49" value="tester: 2" style="rounded=0;whiteSpace=wrap;html=1;fillColor=#fff2cc;strokeColor=#d6b656;" parent="1" vertex="1"><mxGeometry x="640" y="560" width="120" height="40" as="geometry"/></mxCell><mxCell id="62" value="Demo" style="rounded=0;whiteSpace=wrap;html=1;fillColor=#ffff88;strokeColor=#36393d;fontStyle=1" parent="1" vertex="1"><mxGeometry x="1000" y="120" width="120" height="40" as="geometry"/></mxCell><mxCell id="64" value="bug" style="rounded=0;whiteSpace=wrap;html=1;fillColor=#f8cecc;strokeColor=#b85450;" parent="1" vertex="1"><mxGeometry x="240" y="400" width="120" height="40" as="geometry"/></mxCell><mxCell id="65" value="Backlog" style="rounded=0;whiteSpace=wrap;html=1;fillColor=#ffff88;strokeColor=#36393d;fontStyle=1" parent="1" vertex="1"><mxGeometry x="200" y="200" width="120" height="40" as="geometry"/></mxCell><mxCell id="67" value="Confluence" style="rounded=0;whiteSpace=wrap;html=1;fillColor=#dae8fc;strokeColor=#6c8ebf;fontStyle=1" parent="1" vertex="1"><mxGeometry x="200" y="1110" width="120" height="40" as="geometry"/></mxCell><mxCell id="68" value="task management" style="rounded=0;whiteSpace=wrap;html=1;fillColor=#f5f5f5;strokeColor=#666666;fontColor=#333333;" parent="1" vertex="1"><mxGeometry x="320" y="40" width="120" height="40" as="geometry"/></mxCell><mxCell id="69" value="documentation" style="rounded=0;whiteSpace=wrap;html=1;fillColor=#f5f5f5;strokeColor=#666666;fontColor=#333333;" parent="1" vertex="1"><mxGeometry x="320" y="1110" width="120" height="40" as="geometry"/></mxCell><mxCell id="70" value="1&lt;br&gt;" style="rounded=0;whiteSpace=wrap;html=1;" parent="1" vertex="1"><mxGeometry x="440" y="240" width="40" height="40" as="geometry"/></mxCell><mxCell id="71" value="2" style="rounded=0;whiteSpace=wrap;html=1;" parent="1" vertex="1"><mxGeometry x="480" y="240" width="40" height="40" as="geometry"/></mxCell><mxCell id="72" value="3" style="rounded=0;whiteSpace=wrap;html=1;" parent="1" vertex="1"><mxGeometry x="520" y="240" width="40" height="40" as="geometry"/></mxCell><mxCell id="73" value="features" style="rounded=0;whiteSpace=wrap;html=1;fillColor=#d5e8d4;strokeColor=#82b366;" parent="1" vertex="1"><mxGeometry x="1000" y="160" width="120" height="40" as="geometry"/></mxCell><mxCell id="74" value="3" style="rounded=0;whiteSpace=wrap;html=1;" parent="1" vertex="1"><mxGeometry x="680" y="360" width="40" height="140" as="geometry"/></mxCell><mxCell id="75" value="Document" style="rounded=0;whiteSpace=wrap;html=1;fillColor=#ffcd28;strokeColor=#d79b00;gradientColor=#ffa500;shadow=1;fontStyle=1" parent="1" vertex="1"><mxGeometry x="40" y="1110" width="120" height="40" as="geometry"/></mxCell><mxCell id="76" value="technical tasks" style="rounded=0;whiteSpace=wrap;html=1;fillColor=#dae8fc;strokeColor=#6c8ebf;" parent="1" vertex="1"><mxGeometry x="1000" y="200" width="120" height="40" as="geometry"/></mxCell><mxCell id="77" value="bugs" style="rounded=0;whiteSpace=wrap;html=1;fillColor=#f8cecc;strokeColor=#b85450;" parent="1" vertex="1"><mxGeometry x="1000" y="240" width="120" height="40" as="geometry"/></mxCell><mxCell id="78" value="Release" style="rounded=0;whiteSpace=wrap;html=1;fillColor=#ffff88;strokeColor=#36393d;fontStyle=1" parent="1" vertex="1"><mxGeometry x="1160" y="120" width="120" height="40" as="geometry"/></mxCell><mxCell id="79" value="mvp" style="rounded=0;whiteSpace=wrap;html=1;" parent="1" vertex="1"><mxGeometry x="1160" y="160" width="120" height="40" as="geometry"/></mxCell><mxCell id="80" value="v 1.0" style="rounded=0;whiteSpace=wrap;html=1;" parent="1" vertex="1"><mxGeometry x="1160" y="200" width="120" height="40" as="geometry"/></mxCell><mxCell id="81" value="v 1.1" style="rounded=0;whiteSpace=wrap;html=1;" parent="1" vertex="1"><mxGeometry x="1160" y="240" width="120" height="40" as="geometry"/></mxCell><mxCell id="82" value="v 2.0" style="rounded=0;whiteSpace=wrap;html=1;" parent="1" vertex="1"><mxGeometry x="1160" y="280" width="120" height="40" as="geometry"/></mxCell><mxCell id="83" value="Communicate" style="rounded=0;whiteSpace=wrap;html=1;fillColor=#ffcd28;strokeColor=#d79b00;gradientColor=#ffa500;shadow=1;fontStyle=1" parent="1" vertex="1"><mxGeometry x="40" y="1310" width="120" height="40" as="geometry"/></mxCell><mxCell id="84" value="definition of done" style="rounded=0;whiteSpace=wrap;html=1;fillColor=#ffff88;strokeColor=#36393d;fontStyle=1" parent="1" vertex="1"><mxGeometry x="800" y="480" width="120" height="40" as="geometry"/></mxCell><mxCell id="85" value="definition of ready" style="rounded=0;whiteSpace=wrap;html=1;fontStyle=1;fillColor=#ffff88;strokeColor=#36393d;" parent="1" vertex="1"><mxGeometry x="240" y="460" width="120" height="40" as="geometry"/></mxCell><mxCell id="87" value=" run unit tests&#10; run integration tests&#10; run frontend tests&#10; run app locally&#10; create merge request&#10; merge request" style="rounded=0;whiteSpace=wrap;sketch=0;glass=0;shadow=0;align=left;" parent="1" vertex="1"><mxGeometry x="800" y="520" width="160" height="100" as="geometry"/></mxCell><mxCell id="89" value=" complete design&#10; acceptance criteria&#10; no external blockers" style="rounded=0;whiteSpace=wrap;sketch=0;glass=0;shadow=0;align=left;" parent="1" vertex="1"><mxGeometry x="240" y="500" width="140" height="60" as="geometry"/></mxCell><mxCell id="90" value="&lt;b&gt;story points&lt;/b&gt;" style="rounded=0;whiteSpace=wrap;html=1;fillColor=#ffff88;strokeColor=#36393d;" parent="1" vertex="1"><mxGeometry x="440" y="520" width="160" height="40" as="geometry"/></mxCell></root></mxGraphModel></diagram><diagram id="YXYXme5vtFkTX9RAhBHd" name="test"><mxGraphModel dx="1184" dy="720" grid="1" gridSize="10" guides="1" tooltips="1" connect="1" arrows="1" fold="1" page="1" pageScale="1" pageWidth="850" pageHeight="1100" math="0" shadow="0"><root><mxCell id="kSioMrJuq3P6id2KoCf7-0"/><mxCell id="kSioMrJuq3P6id2KoCf7-1" parent="kSioMrJuq3P6id2KoCf7-0"/><mxCell id="kSioMrJuq3P6id2KoCf7-22" value="" style="rounded=0;whiteSpace=wrap;html=1;" vertex="1" parent="kSioMrJuq3P6id2KoCf7-1"><mxGeometry x="20" y="100" width="960" height="140" as="geometry"/></mxCell><mxCell id="kSioMrJuq3P6id2KoCf7-2" value="" style="edgeStyle=orthogonalEdgeStyle;rounded=0;orthogonalLoop=1;jettySize=auto;html=1;" edge="1" parent="kSioMrJuq3P6id2KoCf7-1" source="kSioMrJuq3P6id2KoCf7-3" target="kSioMrJuq3P6id2KoCf7-9"><mxGeometry relative="1" as="geometry"/></mxCell><mxCell id="kSioMrJuq3P6id2KoCf7-3" value="IN PROGRESS" style="rounded=0;whiteSpace=wrap;html=1;fillColor=#fff2cc;strokeColor=#d6b656;" vertex="1" parent="kSioMrJuq3P6id2KoCf7-1"><mxGeometry x="200" y="150" width="120" height="40" as="geometry"/></mxCell><mxCell id="kSioMrJuq3P6id2KoCf7-4" style="edgeStyle=orthogonalEdgeStyle;rounded=0;orthogonalLoop=1;jettySize=auto;html=1;" edge="1" parent="kSioMrJuq3P6id2KoCf7-1" source="kSioMrJuq3P6id2KoCf7-6" target="kSioMrJuq3P6id2KoCf7-3"><mxGeometry relative="1" as="geometry"><Array as="points"><mxPoint x="740" y="120"/><mxPoint x="260" y="120"/></Array></mxGeometry></mxCell><mxCell id="kSioMrJuq3P6id2KoCf7-5" value="" style="edgeStyle=orthogonalEdgeStyle;rounded=0;orthogonalLoop=1;jettySize=auto;html=1;" edge="1" parent="kSioMrJuq3P6id2KoCf7-1" source="kSioMrJuq3P6id2KoCf7-6" target="kSioMrJuq3P6id2KoCf7-15"><mxGeometry relative="1" as="geometry"/></mxCell><mxCell id="kSioMrJuq3P6id2KoCf7-6" value="TESTING" style="rounded=0;whiteSpace=wrap;html=1;fillColor=#ffe6cc;strokeColor=#d79b00;" vertex="1" parent="kSioMrJuq3P6id2KoCf7-1"><mxGeometry x="680" y="150" width="120" height="40" as="geometry"/></mxCell><mxCell id="kSioMrJuq3P6id2KoCf7-7" style="edgeStyle=orthogonalEdgeStyle;rounded=0;orthogonalLoop=1;jettySize=auto;html=1;" edge="1" parent="kSioMrJuq3P6id2KoCf7-1" source="kSioMrJuq3P6id2KoCf7-9" target="kSioMrJuq3P6id2KoCf7-3"><mxGeometry relative="1" as="geometry"><mxPoint x="390" y="340" as="targetPoint"/><Array as="points"><mxPoint x="420" y="210"/><mxPoint x="260" y="210"/></Array></mxGeometry></mxCell><mxCell id="kSioMrJuq3P6id2KoCf7-8" value="" style="edgeStyle=orthogonalEdgeStyle;rounded=0;orthogonalLoop=1;jettySize=auto;html=1;" edge="1" parent="kSioMrJuq3P6id2KoCf7-1" source="kSioMrJuq3P6id2KoCf7-9" target="kSioMrJuq3P6id2KoCf7-13"><mxGeometry relative="1" as="geometry"/></mxCell><mxCell id="kSioMrJuq3P6id2KoCf7-9" value="CODE REVIEW" style="rounded=0;whiteSpace=wrap;html=1;fillColor=#dae8fc;strokeColor=#6c8ebf;" vertex="1" parent="kSioMrJuq3P6id2KoCf7-1"><mxGeometry x="360" y="150" width="120" height="40" as="geometry"/></mxCell><mxCell id="kSioMrJuq3P6id2KoCf7-10" style="edgeStyle=orthogonalEdgeStyle;rounded=0;orthogonalLoop=1;jettySize=auto;html=1;" edge="1" parent="kSioMrJuq3P6id2KoCf7-1" source="kSioMrJuq3P6id2KoCf7-11" target="kSioMrJuq3P6id2KoCf7-3"><mxGeometry relative="1" as="geometry"/></mxCell><mxCell id="kSioMrJuq3P6id2KoCf7-11" value="TODO" style="rounded=0;whiteSpace=wrap;html=1;fillColor=#f5f5f5;strokeColor=#666666;fontColor=#333333;" vertex="1" parent="kSioMrJuq3P6id2KoCf7-1"><mxGeometry x="40" y="150" width="120" height="40" as="geometry"/></mxCell><mxCell id="kSioMrJuq3P6id2KoCf7-12" value="" style="edgeStyle=orthogonalEdgeStyle;rounded=0;orthogonalLoop=1;jettySize=auto;html=1;" edge="1" parent="kSioMrJuq3P6id2KoCf7-1" source="kSioMrJuq3P6id2KoCf7-13" target="kSioMrJuq3P6id2KoCf7-6"><mxGeometry relative="1" as="geometry"/></mxCell><mxCell id="kSioMrJuq3P6id2KoCf7-13" value="DEV DONE" style="rounded=0;whiteSpace=wrap;html=1;fillColor=#cce5ff;strokeColor=#36393d;" vertex="1" parent="kSioMrJuq3P6id2KoCf7-1"><mxGeometry x="520" y="150" width="120" height="40" as="geometry"/></mxCell><mxCell id="kSioMrJuq3P6id2KoCf7-15" value="DONE" style="rounded=0;whiteSpace=wrap;html=1;fillColor=#cdeb8b;strokeColor=#36393d;" vertex="1" parent="kSioMrJuq3P6id2KoCf7-1"><mxGeometry x="840" y="150" width="120" height="40" as="geometry"/></mxCell><mxCell id="kSioMrJuq3P6id2KoCf7-21" value="Workflow" style="rounded=0;whiteSpace=wrap;html=1;fillColor=#ffcd28;strokeColor=#d79b00;gradientColor=#ffa500;shadow=1;fontStyle=1" vertex="1" parent="kSioMrJuq3P6id2KoCf7-1"><mxGeometry x="40" y="40" width="120" height="40" as="geometry"/></mxCell></root></mxGraphModel></diagram></mxfile>